<svg id="Layer_1" data-name="Layer 1" xmlns="http://www.w3.org/2000/svg" width="200" height="200" viewBox="0 0 200 200">
  <g>
    <g>
      <g>
        <path d="M179.23,156.69V155.5a10.7,10.7,0,0,0-10.69-10.69h-9l-.35-.34a4.56,4.56,0,0,1-1.28-2.7,4.89,4.89,0,0,0,.41-.37l4.34,1.08,4.71-1.56v-21a17.91,17.91,0,0,0-13.06-17.15v-3h-9.51v3a17.91,17.91,0,0,0-13.06,17.15v21l4.7,1.56,4.34-1.08.41.37a4.56,4.56,0,0,1-1.28,2.7l-.35.34h-9a10.7,10.7,0,0,0-10.69,10.69v1.19h2.37v4.75h-2.37v7.13h2.37v4.75h54.65v-4.75h2.37v-7.13h-2.37v-4.75Zm-19-9.5h8.31a8.33,8.33,0,0,1,8.23,7.13H160.23Zm3.56,23.75h-3.56v-5.57l-6.47-2.43a10.68,10.68,0,0,0,5.84-6.25h4.19Zm-28.51-14.25h4.19a10.71,10.71,0,0,0,5.84,6.25l-6.46,2.43v5.57h-3.57Zm5.94-7.13h16.63v2.38H141.22Zm8.32,11.88a8.11,8.11,0,0,1-2.38-.35v-6.77h4.75v6.77A8.09,8.09,0,0,1,149.54,161.44Zm-4.75-1.5a8.33,8.33,0,0,1-3.49-5.62h3.49Zm9.5-5.62h3.48a8.32,8.32,0,0,1-3.48,5.62ZM141.22,167l7.13-2.68v6.6h-7.13Zm9.5-2.68,7.13,2.68v3.92h-7.13Zm-11.6-30.22h.35a23.86,23.86,0,0,0,10.07-2.24,23.78,23.78,0,0,0,10.06,2.24H160a10.68,10.68,0,0,1-20.83,0Zm21.11-10.69h-3.57v-3.3l3.57.71Zm-5.94-3.78v3.78h-3.57v-4.49Zm-5.94,3.78h-3.57v-3.78l3.57-.71Zm-5.94,0h-3.56v-2.59l3.56-.71Zm-3.56,2.38h21.38v5.94h-.63a21.43,21.43,0,0,1-9.53-2.25l-.53-.27-.54.27a21.4,21.4,0,0,1-9.53,2.25h-.62ZM165,119.87v19.34l-2.43.8-2.45-.61a12.92,12.92,0,0,0,2.5-7.65V118.89l-8.31-1.66v-2.11h2.37v-2.38h-2.37v-2.37h2.37V108h-2.37v-2.8A15.53,15.53,0,0,1,165,119.87Zm-13.07-17.82v14.71l-2.37-.48-2.38.48V102.05Zm-17.82,37.16V119.87a15.53,15.53,0,0,1,10.69-14.68V108h-2.37v2.37h2.37v2.38h-2.37v2.38h2.37v2.11l-8.31,1.66v12.86a12.92,12.92,0,0,0,2.5,7.65l-2.45.61Zm15.44,5.6a13,13,0,0,0,6.23-1.58,7,7,0,0,0,1.74,2.91l.35.35v.7H141.22v-.7l.35-.34a7.06,7.06,0,0,0,1.74-2.92,12.94,12.94,0,0,0,6.22,1.58Zm-19,2.38h8.31v7.13H122.3A8.33,8.33,0,0,1,130.53,147.19Zm-5.94,9.5h8.32v4.75h-8.32Zm-2.38,7.13H132.9v2.37H122.21Zm2.38,4.75h8.32v2.37h-8.32Zm49.89,2.37h-8.32v-2.37h8.32Zm2.38-4.75H166.17v-2.37h10.69Zm-2.38-4.75h-8.32v-4.75h8.32Z" fill="#fff"/>
        <path d="M156.66,128.18a1.19,1.19,0,1,1-2.37,0,1.19,1.19,0,0,1,2.37,0" fill="#fff"/>
        <path d="M144.79,128.18a1.19,1.19,0,1,1-2.38,0,1.19,1.19,0,0,1,2.38,0" fill="#fff"/>
      </g>
      <g>
        <path d="M38,135.31v3.56H49.89v-3.56a3.56,3.56,0,0,0-3.56-3.56H41.58A3.56,3.56,0,0,0,38,135.31Zm2.37,0a1.2,1.2,0,0,1,1.19-1.19h4.75a1.2,1.2,0,0,1,1.19,1.19v1.19H40.39Z" fill="#fff"/>
        <path d="M51.08,127a1.19,1.19,0,1,1-2.37,0,1.19,1.19,0,0,1,2.37,0" fill="#fff"/>
        <path d="M39.2,127a1.19,1.19,0,1,1-2.37,0,1.19,1.19,0,0,1,2.37,0" fill="#fff"/>
        <path d="M82.16,131.55l4.32-7.5-5.7.37-2.53-5.12-4.32,7.5,1.3,4.86-3.6,6.25-7.29-3.37,4.16-7.2L73.36,126l4.33-7.49-5.7.37-2.53-5.12-4.33,7.49,1.31,4.87-4.27,7.4-.4-.19v-9.93a2.38,2.38,0,0,0,2.38-2.37v-5.94a2.39,2.39,0,0,0-2.38-2.38H60.62l-2.73.27a3.51,3.51,0,0,0,.32-1.46,3.64,3.64,0,0,0-.22-1.19h.22a8.32,8.32,0,0,0,8.31-8.31v-1.19H63a8.31,8.31,0,0,0-7.26,4.28,14.24,14.24,0,0,0-24.45,3.51,29,29,0,0,1-3.67,6.53l-.7.93-1,.1a2.35,2.35,0,0,0-2.14,2.36v2.49a2.38,2.38,0,0,0,2.38,2.37v17.82a2.37,2.37,0,0,0,2.37,2.37h7.13v2.69l-10.73,3.26a8.26,8.26,0,0,0-5.9,8v15.8H68.9v-16a8.17,8.17,0,0,0-.11-1.31l4.45-8.89,1,.44,3.44-6.87-3.85-1.77,3.5-6.06ZM69.29,118.82l1.27,2.56,2.85-.19L71.8,124l-3.25.87-.87-3.25ZM50.61,170.94H47.05l.77-.69A41.37,41.37,0,0,0,60.1,150.32l.14-.51,2.47.62-.22.85a38.92,38.92,0,0,1-11.88,19.66ZM57,167.59v3.35h-3A40.61,40.61,0,0,0,57,167.59ZM33.26,123.43H54.65v8.32a10.69,10.69,0,0,1-21.38,0Zm18,25,.84.24-1.73,6.08-4.29-2.86ZM44,144.81a13,13,0,0,0,5.93-1.44v3.18l-5.93,4-5.94-4v-3.18A13,13,0,0,0,44,144.81Zm-7.32,3.68,5.17,3.45-4.29,2.86-1.73-6.06Zm-.51,10.09,6.64-4.42v16.78H30.89v-9A34.08,34.08,0,0,0,29,150.79l4.48-1.36Zm10.1,9.9-1.09,1v-15.3l6.64,4.42,2.63-9.21,3.21.92a39,39,0,0,1-11.39,18.2Zm6-22.19v-2.67h3.42l-1.59,3.19Zm.62-5a13,13,0,0,0,4.13-9.5v-8.32H59.4v17.82Zm2.94-29.7a1.19,1.19,0,1,1-1.18-1.19A1.18,1.18,0,0,1,55.83,111.55ZM63,103.24H64A5.94,5.94,0,0,1,58.21,108H57.14A5.94,5.94,0,0,1,63,103.24Zm-29.51,6.29a11.88,11.88,0,0,1,21.3-1.59V108h-.09a3.57,3.57,0,0,0-3.57,3.56,3.51,3.51,0,0,0,.68,2.07l-21.71,2.17a31.09,31.09,0,0,0,3.4-6.26Zm-7.31,9,34.53-3.45h1.1v5.93H26.14Zm2.37,4.86h2.38v8.32a13,13,0,0,0,4.13,9.5H28.51Zm-7.12,34.09a5.9,5.9,0,0,1,4.21-5.68l1.17-.36a31.78,31.78,0,0,1,1.74,10.42v9H21.39Zm45.13,13.42H59.4v-6.66a41.37,41.37,0,0,0,5.11-11.42,5.91,5.91,0,0,1,2,4.45Zm1.14-18a8.18,8.18,0,0,0-2.49-2.55l.42-1.69-7-1.76L58.27,148l-1.85-.52,1.93-3.86h1a2.36,2.36,0,0,0,2.28-1.76l9.39,4.27Zm5.44-8.5-11.33-5.15V136l12.65,5.83Zm5-20.1,1.26,2.56,2.85-.19-1.61,2.8-3.24.87-.87-3.25Z" fill="#fff"/>
      </g>
    </g>
    <g>
      <path d="M110,62h-1.36a7.12,7.12,0,0,1-7.12-7.12V53.73a1.19,1.19,0,0,0-.35-.84,1.21,1.21,0,0,0-.84-.35H97.93a1.18,1.18,0,0,0-1.18,1.19v1.19A7.14,7.14,0,0,1,89.62,62H88.26a3.39,3.39,0,0,1-1.52-6.42l.91-.45a3.54,3.54,0,0,0,2-3.19v-.63a7.13,7.13,0,0,1,7.13-7.12h4.75a7.12,7.12,0,0,1,7.12,7.12V52a3.56,3.56,0,0,0,2,3.19l.91.45A3.39,3.39,0,0,1,110,62Zm-12-11.88h2.38a3.56,3.56,0,0,1,3.56,3.57v1.19a4.78,4.78,0,0,0,4.75,4.75H110a1,1,0,0,0,1-.78,1,1,0,0,0-.53-1.15l-.91-.45A5.89,5.89,0,0,1,106.25,52v-.63a4.75,4.75,0,0,0-4.75-4.75H96.75A4.76,4.76,0,0,0,92,51.35V52a5.89,5.89,0,0,1-3.28,5.31l-.91.46h0a1,1,0,0,0-.53,1.14,1,1,0,0,0,1,.78h1.36a4.76,4.76,0,0,0,4.75-4.75V53.73a3.57,3.57,0,0,1,3.56-3.57Z" fill="#fff"/>
      <path d="M115.75,35.91H82.49A6,6,0,0,1,76.55,30V25.22a6,6,0,0,1,5.94-5.94h3.57v2.38H82.49a3.56,3.56,0,0,0-3.56,3.56V30a3.56,3.56,0,0,0,3.56,3.57h33.26A3.57,3.57,0,0,0,119.32,30V25.22a3.56,3.56,0,0,0-3.57-3.56H93.18V19.28h22.57a5.94,5.94,0,0,1,5.94,5.94V30A5.94,5.94,0,0,1,115.75,35.91Z" fill="#fff"/>
      <path d="M88.43,19.28h2.38v2.38H88.43Z" fill="#fff"/>
      <path d="M90.81,54.92H87.6a6.31,6.31,0,0,1-6-8.29L83,42.48h0a13.18,13.18,0,0,0,.67-4.13V34.72h2.38v3.63a15.26,15.26,0,0,1-.8,4.88l-1.38,4.15h0a3.92,3.92,0,0,0,3.72,5.16h3.21Z" fill="#fff"/>
      <path d="M110.64,54.92h-3.2V52.54h3.2a3.91,3.91,0,0,0,3.72-5.16L113,43.23h0a15.54,15.54,0,0,1-.79-4.88V34.72h2.37v3.63a13.18,13.18,0,0,0,.67,4.13l1.39,4.15h0a6.31,6.31,0,0,1-6,8.29Z" fill="#fff"/>
      <path d="M114.62,20.82a8.63,8.63,0,0,0-8.1-6.29H91.72a8.62,8.62,0,0,0-8.09,6.29l-2.27-.71a11,11,0,0,1,10.36-8h14.8a11,11,0,0,1,10.37,8Z" fill="#fff"/>
      <path d="M68.24,38.29a4.76,4.76,0,1,1,3.36-1.4,4.75,4.75,0,0,1-3.36,1.4Zm0-7.13a2.38,2.38,0,1,0,2.37,2.38,2.36,2.36,0,0,0-2.37-2.38Z" fill="#fff"/>
      <path d="M71.8,31.16H69.43V30a1.24,1.24,0,0,1,.12-.53l.86-1.72-2.17-2.89-2.18,2.89.87,1.72a1.24,1.24,0,0,1,.12.53v1.19H64.67v-.91l-1.06-2.13h0a1.2,1.2,0,0,1,.11-1.25l3.57-4.75a1.24,1.24,0,0,1,.95-.45,1.25,1.25,0,0,1,1,.45l3.56,4.75a1.2,1.2,0,0,1,.12,1.25L71.8,30.25Z" fill="#fff"/>
      <path d="M71.8,72.73H69.43V38.29H67.05V72.73H64.67V37.1a1.19,1.19,0,0,1,1.19-1.19h4.75a1.19,1.19,0,0,1,.84.35,1.15,1.15,0,0,1,.35.84Z" fill="#fff"/>
      <path d="M100.31,84.61H97.93c-14.55,0-27.32-12.21-27.32-26.13,0-13.25,7-25.06,7.3-25.56l2,1.23c-.07.11-7,11.76-7,24.33S84.64,82.24,97.93,82.24h2.38c13.29,0,24.94-11.1,24.94-23.76s-6.89-24.22-7-24.33l2-1.23c.3.5,7.3,12.31,7.3,25.56,0,13.92-12.77,26.13-27.32,26.13Z" fill="#fff"/>
      <path d="M69.43,88.18H64.67a3.57,3.57,0,0,1-3.56-3.57V72.73a1.18,1.18,0,0,1,1.19-1.18h7.13a6,6,0,0,1,5.94,5.94v4.75A6,6,0,0,1,69.43,88.18ZM63.49,73.92V84.61a1.18,1.18,0,0,0,.34.84,1.22,1.22,0,0,0,.84.35h4.76A3.56,3.56,0,0,0,73,82.24V77.48a3.56,3.56,0,0,0-3.56-3.56Z" fill="#fff"/>
      <path d="M67.05,72.73H64.67v-3a.59.59,0,1,0-1.18,0v3H61.11v-3a3,3,0,0,1,5.94,0Z" fill="#fff"/>
      <path d="M136,88.18H112.19V85.8h22.57V75.11h2.37V87a1.2,1.2,0,0,1-.34.84,1.22,1.22,0,0,1-.84.35Z" fill="#fff"/>
      <path d="M137.13,72.73h-2.37V70.36c0-3.85-1.67-6.16-4.37-8.63L132,60c3.08,2.82,5.13,5.67,5.13,10.38Z" fill="#fff"/>
      <path d="M112.19,88.18h-7.13A1.2,1.2,0,0,1,103.87,87V82.24h2.38V85.8H111V79.86h2.38V87a1.2,1.2,0,0,1-1.19,1.19Z" fill="#fff"/>
      <path d="M126,66.55l-1.46-1.88,7.94-6.18h0a5.92,5.92,0,0,0,2.3-4.68V50.92a6,6,0,0,0-2.54-4.87,16.29,16.29,0,0,0-9.34-3V40.66a18.56,18.56,0,0,1,10.7,3.45,8.31,8.31,0,0,1,3.55,6.81v2.89a8.26,8.26,0,0,1-3.2,6.56Z" fill="#fff"/>
      <path d="M127.46,59.09l-2-1.22,3-5.1a2.48,2.48,0,0,0,.37-1.3,1.82,1.82,0,0,0-1.06-1.83l-2.79-.7.57-2.3,2.8.69a4.1,4.1,0,0,1,2.85,4.14,4.65,4.65,0,0,1-.72,2.54Z" fill="#fff"/>
      <path d="M80.12,85.8h5.94v2.38H80.12Z" fill="#fff"/>
      <path d="M75.37,85.8h2.37v2.38H75.37Z" fill="#fff"/>
      <path d="M63.49,84.61H61.11V70.36A12.31,12.31,0,0,1,65,61.18l1.71,1.65a10,10,0,0,0-3.23,7.53Z" fill="#fff"/>
      <path d="M93.18,88.18H86.06A1.19,1.19,0,0,1,84.87,87V79.86h2.37V85.8H92V82.24h2.37V87a1.16,1.16,0,0,1-.35.84,1.19,1.19,0,0,1-.84.35Z" fill="#fff"/>
      <path d="M71,43.66l-.67-2.28a18.63,18.63,0,0,1,5.09-.72V43A16,16,0,0,0,71,43.66Z" fill="#fff"/>
      <path d="M65.13,61l-.81-.63a8.27,8.27,0,0,1-3.21-6.56V50.92a8.33,8.33,0,0,1,3.55-6.81l.55-.38,1.31,2-.49.33a6,6,0,0,0-2.54,4.87v2.89a5.88,5.88,0,0,0,2.29,4.68l.81.64Z" fill="#fff"/>
      <path d="M93.18,85.8h11.88v2.38H93.18Z" fill="#fff"/>
      <path d="M102.69,46.6H95.56a1.18,1.18,0,0,1-1.17-1.38l.79-4.79a4,4,0,0,1,7.88,0l.8,4.79a1.17,1.17,0,0,1-.27,1,1.15,1.15,0,0,1-.9.42ZM97,44.23h4.32l-.57-3.41h0a1.62,1.62,0,0,0-3.19,0Z" fill="#fff"/>
      <path d="M111,38.29c0,4.75-4.75,4.75-4.75,0s4.75-4.75,4.75,0" fill="#fff"/>
      <path d="M93.18,38.29c0,4.75-4.75,4.75-4.75,0s4.75-4.75,4.75,0" fill="#fff"/>
    </g>
    <path d="M96,172.44v3h3v-3a4.55,4.55,0,0,1,4.55-4.55h1.52v-3h-1.52A4.55,4.55,0,0,1,99,160.31v-3H96v3a4.55,4.55,0,0,1-4.55,4.55H89.9v3h1.52A4.55,4.55,0,0,1,96,172.44Zm1.52-7.63a7.49,7.49,0,0,0,1.56,1.57,7.21,7.21,0,0,0-1.56,1.56,7.49,7.49,0,0,0-1.57-1.56A7.79,7.79,0,0,0,97.49,164.81Z" fill="#fff"/>
    <path d="M182.4,91.11v-3h-3v3a4.55,4.55,0,0,1-4.55,4.55H173.3v3h1.52a4.55,4.55,0,0,1,4.55,4.54v3h3v-3A4.55,4.55,0,0,1,187,98.7h1.51v-3H187A4.55,4.55,0,0,1,182.4,91.11Zm-1.52,7.63a7.44,7.44,0,0,0-1.56-1.56,7.44,7.44,0,0,0,1.56-1.56,8,8,0,0,0,1.56,1.56A8,8,0,0,0,180.88,98.74Z" fill="#fff"/>
    <path d="M28.62,77.64a4.51,4.51,0,0,1,4.46-4.46,1.95,1.95,0,0,0,0-3.89,4.52,4.52,0,0,1-4.46-4.46,1.94,1.94,0,0,0-3.88,0c0,2.33-2.53,4.46-5.15,4.46a1.95,1.95,0,0,0,0,3.89c2.62,0,5.15,2.13,5.15,4.46a1.94,1.94,0,0,0,3.88,0Z" fill="#fff"/>
    <path d="M116.16,126.56a4.51,4.51,0,0,1,4.46-4.47,1.94,1.94,0,0,0,0-3.88,4.51,4.51,0,0,1-4.46-4.46,1.95,1.95,0,1,0-3.89,0c0,2.32-2.52,4.46-5.14,4.46a1.94,1.94,0,1,0,0,3.88c2.62,0,5.14,2.14,5.14,4.47a1.95,1.95,0,0,0,3.89,0Z" fill="#fff"/>
    <path d="M70.28,70a8.51,8.51,0,0,0,1.35-1.26A16.09,16.09,0,0,0,72.8,70a5,5,0,0,0-1.17,1.26A8.19,8.19,0,0,0,70.28,70Z" fill="#fff"/>
    <path d="M151,39.12a1.94,1.94,0,0,1-1.94-1.94c0-.39-.59-.78-1.17-.78a1.94,1.94,0,0,1,0-3.88c.59,0,1.17-.49,1.17-.78a1.94,1.94,0,0,1,3.88,0,.76.76,0,0,0,.78.78,1.94,1.94,0,0,1,0,3.88.77.77,0,0,0-.78.78A1.89,1.89,0,0,1,151,39.12Z" fill="#fff"/>
    <path d="M72.51,193.6a1.94,1.94,0,0,1-1.94-1.94c0-.39-.58-.78-1.16-.78a1.94,1.94,0,1,1,0-3.88c.58,0,1.16-.49,1.16-.78a1.94,1.94,0,0,1,3.88,0,.77.77,0,0,0,.78.78,1.94,1.94,0,1,1,0,3.88.77.77,0,0,0-.78.78A1.89,1.89,0,0,1,72.51,193.6Z" fill="#fff"/>
  </g>
</svg>
