<svg id="Layer_1" data-name="Layer 1" xmlns="http://www.w3.org/2000/svg" width="200" height="200" viewBox="0 0 200 200">
  <g>
    <path d="M165.05,133.73v-2.54a22.87,22.87,0,0,0-22.84-22.85H123l-.74-.74a9.63,9.63,0,0,1-2.74-5.76c.31-.25.58-.52.87-.79l9.28,2.32,10-3.36V55a38.3,38.3,0,0,0-27.93-36.66v-6.5H91.43v6.5A38.3,38.3,0,0,0,63.5,55v45l10.06,3.36,9.28-2.32c.29.27.57.54.86.79A9.56,9.56,0,0,1,81,107.6l-.75.74H61a22.87,22.87,0,0,0-22.84,22.85v2.54h5.07v10.15H38.12v15.24h5.07v10.15H160V159.12h5.08V143.88H160V133.73Zm-40.62-20.31h17.78a17.81,17.81,0,0,1,17.59,15.23H124.43Zm7.62,50.77h-7.62V152.28l-13.82-5.19a22.91,22.91,0,0,0,12.49-13.36h9ZM71.12,133.73h8.95a22.91,22.91,0,0,0,12.49,13.36l-13.82,5.19v11.91H71.12ZM83.81,118.5h35.55v5.07H83.81Zm17.78,25.38a17.39,17.39,0,0,1-5.08-.75V128.65h10.15v14.48A17.37,17.37,0,0,1,101.59,143.88Zm-10.16-3.21a17.81,17.81,0,0,1-7.44-12h7.44Zm20.31-12h7.44a17.77,17.77,0,0,1-7.44,12ZM83.81,155.8l15.24-5.72v14.11H83.81Zm20.31-5.72,15.24,5.72v8.39H104.12ZM79.33,85.49h.75a50.74,50.74,0,0,0,21.5-4.8,50.81,50.81,0,0,0,21.51,4.8h.75a22.82,22.82,0,0,1-44.51,0Zm45.1-22.85h-7.61v-7l7.61,1.52Zm-12.69-8.07v8.07h-7.62V53.05ZM99.05,62.64H91.43V54.57l7.62-1.52Zm-12.7,0H78.74V57.11l7.61-1.52Zm-7.61,5.08h45.69v12.7h-1.34a45.87,45.87,0,0,1-20.37-4.81L101.59,75l-1.14.57a45.87,45.87,0,0,1-20.37,4.81H78.74ZM134.59,55V96.36l-5.18,1.73-5.24-1.31a27.79,27.79,0,0,0,5.34-16.36V53l-17.77-3.56V44.88h5.08V39.8h-5.08V34.72h5.08V29.64h-5.08v-6A33.22,33.22,0,0,1,134.59,55ZM106.66,17V48.38l-5.08-1-5.07,1V17ZM68.58,96.36V55A33.19,33.19,0,0,1,91.43,23.65v6H86.35v5.08h5.08V39.8H86.35v5.07h5.08v4.52L73.66,53V80.41A27.75,27.75,0,0,0,79,96.77l-5.24,1.31Zm33,12A27.69,27.69,0,0,0,114.89,105a14.69,14.69,0,0,0,3.72,6.22l.74.75v1.49H83.81v-1.49l.74-.74A14.62,14.62,0,0,0,88.27,105a27.72,27.72,0,0,0,13.31,3.38ZM61,113.42H78.74v15.23H43.37A17.81,17.81,0,0,1,61,113.42ZM48.27,133.73H66v10.15H48.27ZM43.19,149H66V154H43.19Zm5.08,10.16H66v5.07H48.27Zm106.63,5.07H137.12v-5.07H154.9ZM160,154H137.13V149H160Zm-5.07-10.16H137.12V133.73H154.9Z" fill="#fff"/>
    <path d="M116.82,72.8a2.54,2.54,0,0,1-5.08,0,2.54,2.54,0,0,1,5.08,0" fill="#fff"/>
    <path d="M91.43,72.8a2.54,2.54,0,0,1-5.08,0,2.54,2.54,0,0,1,5.08,0" fill="#fff"/>
    <path d="M167.54,74.43V71.52h-2.91v2.91a4.38,4.38,0,0,1-4.38,4.38H158.8v2.91h1.45a4.38,4.38,0,0,1,4.38,4.38V89h2.91V86.1a4.38,4.38,0,0,1,4.38-4.38h1.45V78.81h-1.45A4.38,4.38,0,0,1,167.54,74.43Zm-1.45,7.34a7.21,7.21,0,0,0-1.51-1.51,6.93,6.93,0,0,0,1.51-1.5,6.67,6.67,0,0,0,1.5,1.5A6.93,6.93,0,0,0,166.09,81.77Z" fill="#fff"/>
    <path d="M43.62,51.14v2.92h2.92V51.14a4.37,4.37,0,0,1,4.37-4.37h1.46V43.85H50.91a4.37,4.37,0,0,1-4.37-4.37V36.56H43.62v2.92a4.37,4.37,0,0,1-4.37,4.37H37.79v2.92h1.46A4.37,4.37,0,0,1,43.62,51.14Zm1.46-7.33a7.35,7.35,0,0,0,1.5,1.5,7.35,7.35,0,0,0-1.5,1.5,7.35,7.35,0,0,0-1.5-1.5A7.61,7.61,0,0,0,45.08,43.81Z" fill="#fff"/>
    <path d="M123.39,180.41a4.34,4.34,0,0,1-4.29,4.3,1.87,1.87,0,1,0,0,3.73,4.34,4.34,0,0,1,4.29,4.29,1.87,1.87,0,1,0,3.73,0c0-2.24,2.43-4.29,4.95-4.29a1.87,1.87,0,0,0,0-3.73c-2.52,0-4.95-2.05-4.95-4.3a1.87,1.87,0,0,0-3.73,0Z" fill="#fff"/>
    <path d="M19.44,87.6a4.34,4.34,0,0,1-4.29,4.3,1.87,1.87,0,1,0,0,3.73,4.34,4.34,0,0,1,4.29,4.29,1.87,1.87,0,1,0,3.73,0c0-2.24,2.43-4.29,4.95-4.29a1.87,1.87,0,0,0,0-3.73c-2.52,0-4.95-2.06-4.95-4.3a1.87,1.87,0,0,0-3.73,0Z" fill="#fff"/>
    <path d="M47.78,92.46a1.87,1.87,0,0,1,1.87,1.87c0,.37.56.74,1.12.74a1.87,1.87,0,0,1,0,3.73c-.56,0-1.12.47-1.12.75a1.87,1.87,0,1,1-3.73,0,.74.74,0,0,0-.75-.75,1.87,1.87,0,1,1,0-3.73.73.73,0,0,0,.75-.74A1.82,1.82,0,0,1,47.78,92.46Z" fill="#fff"/>
    <path d="M136.88,15.74a1.87,1.87,0,0,1,1.87,1.86c0,.37.56.75,1.12.75a1.87,1.87,0,0,1,0,3.73c-.56,0-1.12.47-1.12.75a1.87,1.87,0,0,1-3.73,0,.74.74,0,0,0-.75-.75,1.87,1.87,0,1,1,0-3.73.74.74,0,0,0,.75-.75A1.8,1.8,0,0,1,136.88,15.74Z" fill="#fff"/>
  </g>
</svg>
