<svg id="Layer_1" data-name="Layer 1" xmlns="http://www.w3.org/2000/svg" width="200" height="200" viewBox="0 0 200 200">
  <g>
    <path d="M122.56,122.19a2.49,2.49,0,0,1-1.65-2.3v-4h3.15v-9.23h-5.44l1.91-9.12A2.94,2.94,0,0,0,117.64,94h-12a2.94,2.94,0,0,0-2.88,3.58l1.92,9.1h-5.5v9.23h3.14v4a2.48,2.48,0,0,1-1.59,2.3,29.26,29.26,0,0,0-18,31,28.64,28.64,0,0,0,25.6,24.59c1.12.12,2.24.18,3.37.19a29.46,29.46,0,0,0,19.74-7.41,28.19,28.19,0,0,0,9.46-21.25,29.07,29.07,0,0,0-18.36-27.07ZM105.42,97a.3.3,0,0,1,.06-.26.28.28,0,0,1,.24-.1h12a.28.28,0,0,1,.24.1.3.3,0,0,1,0,.26l-2,9.68h-8.49Zm-3.55,12.32h19.61v4H101.87Zm27.77,59.21a27,27,0,0,1-21,6.6A26,26,0,0,1,85.31,152.8a26.63,26.63,0,0,1,16.45-28.16,5.14,5.14,0,0,0,3.25-4.75v-4h13.27v4a5.13,5.13,0,0,0,3.24,4.75,26.35,26.35,0,0,1,16.69,24.62,25.5,25.5,0,0,1-8.57,19.28Zm-25.24-37.2a19.37,19.37,0,0,0-10.26,9.56,1.32,1.32,0,0,1-1.18.74,1.4,1.4,0,0,1-.57-.13,1.32,1.32,0,0,1-.62-1.72,22,22,0,0,1,11.64-10.85,1.32,1.32,0,0,1,1,2.44ZM92.67,145.21a19.11,19.11,0,0,0-.39,5.54,1.32,1.32,0,0,1-.31,1,1.3,1.3,0,0,1-.9.46H91A1.33,1.33,0,0,1,89.66,151a21.92,21.92,0,0,1,.42-6.31,1.36,1.36,0,0,1,.59-.85,1.33,1.33,0,0,1,1-.19,1.36,1.36,0,0,1,1,1.6Zm19-7.25a10.62,10.62,0,0,0-5.93,19.44V160a1.31,1.31,0,0,0,1.32,1.32h9.23a1.33,1.33,0,0,0,1.32-1.32V157.4A10.62,10.62,0,0,0,111.68,138Zm4,17.55a1.32,1.32,0,0,0-.67,1.15v2.1h-6.6v-2.1a1.34,1.34,0,0,0-.67-1.15,8,8,0,1,1,7.91,0Zm-7-6.76a1.31,1.31,0,0,1-.92,2.25,1.55,1.55,0,0,1-.52-.1,1,1,0,0,1-.42-.29,1.34,1.34,0,0,1-.38-.92,1.54,1.54,0,0,1,.09-.52,1.32,1.32,0,0,1,2.15-.42Zm8.14.42a1.54,1.54,0,0,1,.09.52,1.3,1.3,0,0,1-.39.92,1,1,0,0,1-.19.17,1,1,0,0,1-.23.12l-.25.08h-.26a1.32,1.32,0,0,1-1.32-1.32,1.33,1.33,0,0,1,2.25-.94,1.18,1.18,0,0,1,.28.45ZM113,153.31v.45a1.32,1.32,0,0,1-2.64,0v-.45a1.32,1.32,0,0,1,2.64,0ZM132.94,103a1.32,1.32,0,0,1,1.32-1.32h5.27a1.32,1.32,0,0,1,0,2.64h-5.27A1.32,1.32,0,0,1,132.94,103ZM88.26,106.5a4.78,4.78,0,1,0-4.77,4.78,4.79,4.79,0,0,0,4.77-4.78Zm-6.91,0A2.15,2.15,0,0,1,85,105a2.12,2.12,0,0,1,.46,2.34,2.15,2.15,0,0,1-2,1.33,2.15,2.15,0,0,1-2.15-2.15Zm48.56,17.14a4.79,4.79,0,1,0-4.78-4.77,4.78,4.78,0,0,0,4.78,4.77Zm0-6.92a2.15,2.15,0,1,1-2.14,2.15,2.13,2.13,0,0,1,2.14-2.15Z" fill="#fff"/>
    <path d="M61.38,171.88v2.64H64v-2.64a4,4,0,0,1,4-3.95h1.31v-2.64H68a4,4,0,0,1-4-4V158.7H61.38v2.63a4,4,0,0,1-4,4H56.11v2.64h1.32A4,4,0,0,1,61.38,171.88Zm1.32-6.63a6.74,6.74,0,0,0,1.36,1.36A6.49,6.49,0,0,0,62.7,168a6.27,6.27,0,0,0-1.36-1.36A6.49,6.49,0,0,0,62.7,165.25Z" fill="#fff"/>
    <path d="M166.78,140.34V137.7h-2.64v2.64a4,4,0,0,1-4,3.95h-1.32v2.64h1.32a4,4,0,0,1,4,4v2.64h2.64v-2.64a4,4,0,0,1,3.95-4h1.32v-2.64h-1.32A4,4,0,0,1,166.78,140.34ZM165.46,147a6.74,6.74,0,0,0-1.36-1.36,6.27,6.27,0,0,0,1.36-1.36,6.27,6.27,0,0,0,1.36,1.36A6.49,6.49,0,0,0,165.46,147Z" fill="#fff"/>
    <path d="M54.69,122.27l-4.17,3.23L15,79.62l-1,.81A9.25,9.25,0,0,0,12.3,93.38L42.18,132,38,135.19l4.84,6.26,5.21-4,7.27,9.38A4,4,0,0,0,61.59,142l-7.27-9.38,5.21-4Zm-40.3-30.5a6.61,6.61,0,0,1,.21-8.34l33.83,43.69-4.17,3.23Zm39,48.2,2.08-1.62,1.62,2.09L55,142.05Zm5.89,5.45a1.33,1.33,0,0,1-1.85-.24l-.81-1,2.08-1.62.81,1A1.32,1.32,0,0,1,59.27,145.42Zm-5.42-9.15-2.09,1.61-1.61-2.08,2.09-1.62Zm2-8.21-12.51,9.69-1.61-2.09L54.22,126Z" fill="#fff"/>
    <path d="M164.92,68.89l-4-6.83-5.69,3.32-6-10.25a4,4,0,0,0-6.83,4l6,10.25-5.69,3.33,4,6.83,4.56-2.66L175.86,119a9.24,9.24,0,0,0,12.63,3.32l1.13-.66L160.37,71.55ZM150.3,62.16,148,63.49l-1.33-2.28L149,59.88ZM145.17,56a1.32,1.32,0,0,1,1.8.47l.67,1.14-2.28,1.33-.66-1.14A1.31,1.31,0,0,1,145.17,56Zm4.18,9.77,2.28-1.33L153,66.71,150.68,68Zm-3,7.88,13.66-8,1.33,2.28-13.66,8Zm39.63,47a6.6,6.6,0,0,1-7.81-2.92L153.53,75.54l4.56-2.66Z" fill="#fff"/>
    <path d="M54.7,96.35,101,50.1A5.68,5.68,0,0,0,102.64,46,5.88,5.88,0,0,0,101,41.83L100,40.9a6,6,0,0,0-8.35,0L45.5,87.07a5.68,5.68,0,0,0-1.69,4.13,5.88,5.88,0,0,0,1.69,4.14l.85,1a6,6,0,0,0,8.35,0Zm43-53.17.93.93a2.42,2.42,0,0,1,.76,1.77,2.33,2.33,0,0,1-.76,1.78l-6.42,6.41L87.7,49.6l6.42-6.42a2.59,2.59,0,0,1,3.54,0ZM48.79,93.91,47.86,93a2.43,2.43,0,0,1-.76-1.78,2.32,2.32,0,0,1,.76-1.77L85.26,52l4.47,4.48L52.26,94a2.43,2.43,0,0,1-3.47-.08Zm58-29.88c0,3.29-3.63,5.9-6.76,5.9a1.69,1.69,0,0,0,0,3.38c3.13,0,6.76,2.53,6.76,5.91a1.69,1.69,0,1,0,3.37,0,5.93,5.93,0,0,1,5.91-5.91,1.69,1.69,0,0,0,0-3.38,5.92,5.92,0,0,1-5.91-5.9,1.69,1.69,0,1,0-3.37,0Zm4,7.51A9.3,9.3,0,0,0,108.38,74a10.24,10.24,0,0,0-2.62-2.45,10.59,10.59,0,0,0,2.62-2.45A8.23,8.23,0,0,0,110.74,71.54ZM65.5,46.89A3.93,3.93,0,0,1,69.39,43a1.69,1.69,0,0,0,0-3.38,3.93,3.93,0,0,1-3.89-3.88,1.69,1.69,0,1,0-3.37,0c0,2-2.2,3.88-4.48,3.88a1.69,1.69,0,0,0,0,3.38c2.28,0,4.48,1.86,4.48,3.88a1.69,1.69,0,1,0,3.37,0Zm-3-5.56a7.69,7.69,0,0,0,1.18-1.1c.34.42.68.76,1,1.1a4,4,0,0,0-1,1.09A6.89,6.89,0,0,0,62.55,41.33Zm46.67-4.56a1.69,1.69,0,0,0,3.38,0,3.93,3.93,0,0,1,3.88-3.89,1.69,1.69,0,1,0,0-3.37,3.93,3.93,0,0,1-3.88-3.89,1.69,1.69,0,1,0-3.38,0c0,2-2.19,3.89-4.47,3.89a1.69,1.69,0,1,0,0,3.37C107,32.89,109.22,34.74,109.22,36.77Zm.42-5.57a6.87,6.87,0,0,0,1.18-1.1,13.79,13.79,0,0,0,1,1.1,3.93,3.93,0,0,0-1,1.1A10.85,10.85,0,0,0,109.64,31.2Zm-28.36-1A1.69,1.69,0,0,1,79.6,28.5c0-.34-.51-.68-1-.68a1.69,1.69,0,0,1,0-3.37c.51,0,1-.43,1-.68a1.69,1.69,0,1,1,3.37,0,.67.67,0,0,0,.68.68,1.69,1.69,0,1,1,0,3.37.67.67,0,0,0-.68.68A1.64,1.64,0,0,1,81.28,30.19Z" fill="#fff"/>
  </g>
</svg>
