<svg id="Layer_1" data-name="Layer 1" xmlns="http://www.w3.org/2000/svg" width="725.51" height="208.64" viewBox="0 0 725.51 208.64">
  <g>
    <path d="M92.65,152.41c-2.25,0-4,1.62-4,4.5s1.76,4.58,4,4.58,4-1.66,4-4.58S94.94,152.41,92.65,152.41Zm0,0c-2.25,0-4,1.62-4,4.5s1.76,4.58,4,4.58,4-1.66,4-4.58S94.94,152.41,92.65,152.41ZM157.89,34.08C138.39,10.6,84.89,10,84.89,10s-53.5.6-73,24.08c-8,108.36,8,138.65,73,163.84C149.89,172.73,165.89,142.44,157.89,34.08ZM70.66,161.21a7.26,7.26,0,0,0,5.8-2.89l4.44,4c-2.39,3-6.06,4.65-10.6,4.65-7.81,0-13.55-5.31-13.55-12.81s5.74-12.82,13.55-12.82c4.54,0,8.21,1.66,10.6,4.65l-4.44,4a7.28,7.28,0,0,0-5.8-2.88c-4,0-6.87,2.81-6.87,7S66.61,161.21,70.66,161.21Zm22,5.59c-6.23,0-10.77-4.11-10.77-9.89s4.54-9.82,10.77-9.82,10.77,4.08,10.77,9.82S99,166.8,92.65,166.8Zm16.58,0a3.89,3.89,0,0,1-4-4,4,4,0,0,1,8,0A3.87,3.87,0,0,1,109.23,166.8Zm-.82-41.56-6.21-16.13H67.05l-6.21,16.13H29.12L69.56,32.73h30.66l40.44,92.51ZM92.65,152.41c-2.25,0-4,1.62-4,4.5s1.76,4.58,4,4.58,4-1.66,4-4.58S94.94,152.41,92.65,152.41Zm-17-65.76h18l-9-23.26Zm17,65.76c-2.25,0-4,1.62-4,4.5s1.76,4.58,4,4.58,4-1.66,4-4.58S94.94,152.41,92.65,152.41Zm0,0c-2.25,0-4,1.62-4,4.5s1.76,4.58,4,4.58,4-1.66,4-4.58S94.94,152.41,92.65,152.41Z" fill="#fff"/>
    <path d="M167.86,33.34l-.23-3.19-2-2.46C156,16.13,139.3,8,116,3.42A190.74,190.74,0,0,0,85,0h-.22a190.74,190.74,0,0,0-31,3.42C30.48,8,13.8,16.13,4.2,27.69L2.15,30.15l-.23,3.19c-4.35,58.85-1.45,93,10,118s31.59,41.25,69.36,55.88l3.61,1.4,3.61-1.4c37.77-14.63,57.87-30.82,69.36-55.88S172.21,92.19,167.86,33.34ZM153.31,149.27c-10.89,23.75-30.19,39.2-66.61,53.31l-1.81.7-1.81-.7C46.66,188.47,27.36,173,16.47,149.27,5.4,125.12,2.63,91.64,6.9,33.71L7,32.12l1-1.23C28.78,5.92,82.55,5,84.83,5H85c2.28,0,56.05.92,76.79,25.89l1,1.23.12,1.59C167.15,91.64,164.38,125.12,153.31,149.27Z" fill="#fff"/>
  </g>
  <g>
    <g>
      <path d="M266.51,101.27H239.87l-5,12.23H216.74l27.81-63H262.1l27.9,63H271.46Zm-5.22-13.14L253.19,68l-8.1,20.16Z" fill="#fff"/>
      <path d="M345.62,46.73V113.5H329.33v-4.85c-3.24,3.86-8,5.66-14.31,5.66-13.32,0-24-9.71-24-25.28s10.7-25.11,24-25.11c5.67,0,10.26,1.62,13.5,5V46.73ZM328.79,89c0-7.38-4.41-11.52-10.17-11.52S308.36,81.65,308.36,89s4.41,11.7,10.26,11.7S328.79,96.49,328.79,89Z" fill="#fff"/>
      <path d="M408,64.73,387.83,113.5H370.19L350.12,64.73h17.55l11.7,29.79L391.7,64.73Z" fill="#fff"/>
      <path d="M460.64,93.44H425.18c1.44,5,5.67,7.83,12,7.83A15.64,15.64,0,0,0,448.4,97l9,9.37c-4.68,5.22-11.52,7.91-20.79,7.91C419.24,114.31,408,103.61,408,89s11.43-25.11,26.82-25.11c14.4,0,26.1,9.18,26.1,25.29C460.91,90.47,460.73,92.09,460.64,93.44Zm-35.73-9h20a9.64,9.64,0,0,0-10-8.37C429.59,76.07,425.9,79.31,424.91,84.44Z" fill="#fff"/>
      <path d="M520.76,85.61V113.5h-17.1V88.4c0-7-3.06-10-8-10-5.49,0-9.72,3.42-9.72,11.52V113.5h-17.1V64.73h16.29V70c3.87-4.05,9.36-6.12,15.48-6.12C512,63.92,520.76,70.49,520.76,85.61Z" fill="#fff"/>
      <path d="M565.13,111.53c-3,1.88-7.38,2.78-11.88,2.78-12.51,0-19.8-6.11-19.8-18.62V79.31h-7.11V66.53h7.11V53.84h17.1V66.53h11.16V79.31H550.55v16.2c0,3.6,2.07,5.57,5.13,5.57a9.43,9.43,0,0,0,5.22-1.52Z" fill="#fff"/>
      <path d="M623,64.73V113.5H606.71v-5.22a19.22,19.22,0,0,1-14.49,6c-12,0-20.7-6.83-20.7-22.31V64.73h17.1V89.21c0,7.56,3,10.53,8.1,10.53s9.18-3.33,9.18-11.52V64.73Z" fill="#fff"/>
      <path d="M666.65,63.92V79.31a31.14,31.14,0,0,0-3.87-.27c-6.93,0-11.7,3.51-11.7,12.06v22.4H634V64.73h16.29v5.85C653.78,66.17,659.45,63.92,666.65,63.92Z" fill="#fff"/>
      <path d="M722.81,93.44H687.35c1.44,5,5.67,7.83,12,7.83A15.64,15.64,0,0,0,710.57,97l9,9.37c-4.68,5.22-11.52,7.91-20.79,7.91-17.37,0-28.62-10.7-28.62-25.28S681.59,63.92,697,63.92c14.4,0,26.1,9.18,26.1,25.29C723.08,90.47,722.9,92.09,722.81,93.44Zm-35.73-9h20a9.64,9.64,0,0,0-10-8.37C691.76,76.07,688.07,79.31,687.08,84.44Z" fill="#fff"/>
    </g>
    <g>
      <path d="M220.2,147c0-10.45,8-18,18.76-18,5.7,0,10.6,2.05,13.85,5.85l-4.2,4a12.29,12.29,0,0,0-9.35-4.1c-7.25,0-12.5,5.1-12.5,12.3s5.25,12.3,12.5,12.3a12.17,12.17,0,0,0,9.35-4.15l4.2,4c-3.25,3.8-8.15,5.85-13.9,5.85C228.2,165,220.2,157.45,220.2,147Z" fill="#fff"/>
      <path d="M255.25,151.15c0-8,6-13.65,14.2-13.65s14.26,5.65,14.26,13.65-5.95,13.7-14.26,13.7S255.25,159.15,255.25,151.15Zm22.16,0c0-5.1-3.4-8.35-8-8.35s-7.9,3.25-7.9,8.35,3.4,8.35,7.9,8.35S277.41,156.25,277.41,151.15Z" fill="#fff"/>
      <path d="M288.85,148H302.6v5.2H288.85Z" fill="#fff"/>
      <path d="M307.75,151.15c0-8,6-13.65,14.2-13.65s14.25,5.65,14.25,13.65-5.95,13.7-14.25,13.7S307.75,159.15,307.75,151.15Zm22.15,0c0-5.1-3.4-8.35-7.95-8.35s-7.9,3.25-7.9,8.35,3.4,8.35,7.9,8.35S329.9,156.25,329.9,151.15Z" fill="#fff"/>
      <path d="M370.55,151.15c0,8.3-5.75,13.7-13.55,13.7a11,11,0,0,1-8.55-3.6V174.2H342.2V137.8h5.95v3.5a11,11,0,0,1,8.85-3.8C364.8,137.5,370.55,142.9,370.55,151.15Zm-6.35,0c0-5.1-3.4-8.35-7.9-8.35s-7.95,3.25-7.95,8.35,3.45,8.35,7.95,8.35S364.2,156.25,364.2,151.15Z" fill="#fff"/>
      <path d="M401.5,153.15H380.55c.75,3.9,4,6.4,8.65,6.4a9.57,9.57,0,0,0,7.25-2.9l3.35,3.85c-2.4,2.85-6.15,4.35-10.75,4.35-8.95,0-14.75-5.75-14.75-13.7s5.85-13.65,13.8-13.65c7.8,0,13.5,5.45,13.5,13.8C401.6,151.8,401.55,152.55,401.5,153.15Zm-21-4.15h15.15a7.27,7.27,0,0,0-7.55-6.5A7.38,7.38,0,0,0,380.5,149Z" fill="#fff"/>
      <path d="M423.05,137.5v5.95a7.93,7.93,0,0,0-1.45-.15c-4.75,0-7.75,2.8-7.75,8.25V164.5H407.6V137.8h5.95v3.9C415.35,138.9,418.6,137.5,423.05,137.5Z" fill="#fff"/>
      <path d="M450.55,148.85V164.5h-5.9v-3.25c-1.5,2.3-4.4,3.6-8.4,3.6-6.1,0-9.95-3.35-9.95-8,0-4.45,3-7.95,11.1-7.95h6.9v-.4c0-3.65-2.2-5.8-6.65-5.8a13.22,13.22,0,0,0-8.1,2.65l-2.45-4.55c2.85-2.2,7-3.3,11.3-3.3C446.1,137.5,450.55,141.15,450.55,148.85Zm-6.25,7.3v-3.1h-6.45c-4.25,0-5.4,1.6-5.4,3.55,0,2.25,1.9,3.7,5.1,3.7S443.25,158.9,444.3,156.15Z" fill="#fff"/>
      <path d="M474.6,163.05a9.82,9.82,0,0,1-6,1.8c-5.85,0-9.2-3.1-9.2-9V143H455v-5h4.4v-6.1h6.25V138h7.15v5h-7.15v12.7c0,2.6,1.3,4,3.7,4a5.62,5.62,0,0,0,3.5-1.1Z" fill="#fff"/>
      <path d="M478.9,129.65a3.81,3.81,0,0,1,4-3.75,3.72,3.72,0,0,1,4,3.6,4,4,0,0,1-8,.15Zm.85,8.15H486v26.7h-6.25Z" fill="#fff"/>
      <path d="M519.2,137.8l-11.45,26.7H501.3l-11.45-26.7h6.5l8.3,19.8,8.55-19.8Z" fill="#fff"/>
      <path d="M547.35,153.15h-21c.75,3.9,4,6.4,8.65,6.4a9.57,9.57,0,0,0,7.25-2.9l3.35,3.85c-2.4,2.85-6.15,4.35-10.75,4.35-8.95,0-14.75-5.75-14.75-13.7S526,137.5,534,137.5c7.8,0,13.5,5.45,13.5,13.8C547.45,151.8,547.4,152.55,547.35,153.15Zm-21-4.15H541.5a7.27,7.27,0,0,0-7.55-6.5A7.38,7.38,0,0,0,526.35,149Z" fill="#fff"/>
    </g>
  </g>
</svg>
